<?xml version="1.0" encoding="utf-8"?>
<!-- Generator: Adobe Illustrator 21.1.0, SVG Export Plug-In . SVG Version: 6.00 Build 0)  -->
<svg version="1.1" id="Layer_1" xmlns="http://www.w3.org/2000/svg" xmlns:xlink="http://www.w3.org/1999/xlink" x="0px" y="0px"
	 viewBox="0 0 256 256" enable-background="new 0 0 256 256" xml:space="preserve">
<rect fill="#9C5C90" width="256" height="256"/>
<g>
	<polygon fill="#FFFFFF" points="37.9,153 25.6,153 15.5,103 26.6,103 32.4,137.9 38,103 47.9,103 53.6,137.9 59.4,103 69.9,103 
		59.6,153 47.5,153 42.7,122.6 	"/>
	<path fill="#FFFFFF" d="M73.1,126.7c0-5.6,2.4-9.4,9.1-9.4h8.3c6.6,0,9.1,3.9,9.1,9.4v16.9c0,5.6-2.4,9.4-9.1,9.4h-8.3
		c-6.7,0-9.1-3.9-9.1-9.4V126.7z M89.5,127.9c0-1.3-0.5-1.9-1.5-1.9h-3.3c-1.1,0-1.6,0.6-1.6,1.9v14.6c0,1.4,0.6,1.9,1.6,1.9h3.3
		c1.1,0,1.6-0.6,1.6-1.9V127.9z"/>
	<path fill="#FFFFFF" d="M106.2,126.7c0-5.6,2.4-9.4,9.1-9.4h8.3c6.6,0,9.1,3.9,9.1,9.4v16.9c0,5.6-2.4,9.4-9.1,9.4h-8.3
		c-6.7,0-9.1-3.9-9.1-9.4V126.7z M122.6,127.9c0-1.3-0.5-1.9-1.5-1.9h-3.3c-1.1,0-1.6,0.6-1.6,1.9v14.6c0,1.4,0.6,1.9,1.6,1.9h3.3
		c1.1,0,1.6-0.6,1.6-1.9V127.9z"/>
	<path fill="#FFFFFF" d="M161.5,117.3v9.6c-0.9-0.6-2.3-0.8-3.6-0.8h-8.2c-0.8,0-1.4,0.5-1.4,1.4v0.4c0,0.8,0.4,1.2,1.2,1.6l6.8,2.7
		c4.7,1.9,6.3,4,6.3,8.9v2.3c0,6.5-3.1,9.5-9.1,9.5h-14.8v-9.4c0.9,0.6,2.3,0.8,3.6,0.8h9.4c0.7,0,1.3-0.6,1.3-1.5v-0.6
		c0-0.9-0.3-1.4-1.1-1.8l-6.3-2.6c-5.2-2.1-6.9-4.3-6.9-10v-1.1c0-5.9,2.9-9.5,9.1-9.5H161.5z"/>
	<path fill="#FFFFFF" d="M210.5,153h-10.1v-25.1c0-1.3-0.4-1.9-1.5-1.9h-2.6c-1.1,0-1.6,0.6-1.6,1.9V153h-10v-25.1
		c0-1.3-0.4-1.9-1.6-1.9h-4.4V153h-10v-35.7h12c6.9,0,9,2.3,9.4,6.5c0.4-4.1,3.1-6.5,7.4-6.5h3.9c6.2,0,9.1,3.6,9.1,9.4V153z"/>
	<path fill="#FFFFFF" d="M239.4,117.3v9.6c-0.9-0.6-2.3-0.8-3.6-0.8h-8.2c-0.8,0-1.4,0.5-1.4,1.4v0.4c0,0.8,0.4,1.2,1.2,1.6l6.8,2.7
		c4.7,1.9,6.3,4,6.3,8.9v2.3c0,6.5-3.1,9.5-9.1,9.5h-14.8v-9.4c0.9,0.6,2.3,0.8,3.6,0.8h9.4c0.7,0,1.3-0.6,1.3-1.5v-0.6
		c0-0.9-0.3-1.4-1.1-1.8l-6.3-2.6c-5.2-2.1-6.9-4.3-6.9-10v-1.1c0-5.9,2.9-9.5,9.1-9.5H239.4z"/>
</g>
</svg>
