<?xml version="1.0" encoding="utf-8"?>
<!-- Generator: Adobe Illustrator 21.1.0, SVG Export Plug-In . SVG Version: 6.00 Build 0)  -->
<svg version="1.1" id="Layer_1" xmlns="http://www.w3.org/2000/svg" xmlns:xlink="http://www.w3.org/1999/xlink" x="0px" y="0px"
	 viewBox="0 0 256 256" style="enable-background:new 0 0 256 256;" xml:space="preserve">
<style type="text/css">
	.st0{fill:#633562;}
	.st1{fill:#FFFFFF;}
</style>
<rect class="st0" width="256" height="256"/>
<g>
	<path class="st1" d="M42.9,150.3h-11l-9-44.6h9.8l5.2,31.1l5-31.1h8.9l5,31.1l5.2-31.1h9.4l-9.2,44.6H51.5l-4.3-27.1L42.9,150.3z"
		/>
	<path class="st1" d="M74.3,126.8c0-5,2.1-8.4,8.1-8.4h7.4c5.9,0,8.1,3.4,8.1,8.4v15c0,5-2.1,8.4-8.1,8.4h-7.4c-6,0-8.1-3.4-8.1-8.4
		V126.8z M89,127.9c0-1.2-0.4-1.7-1.3-1.7h-3c-1,0-1.4,0.5-1.4,1.7v13c0,1.3,0.5,1.7,1.4,1.7h3c1,0,1.4-0.5,1.4-1.7L89,127.9
		L89,127.9z"/>
	<path class="st1" d="M103.8,126.8c0-5,2.1-8.4,8.1-8.4h7.4c5.9,0,8.1,3.4,8.1,8.4v15c0,5-2.1,8.4-8.1,8.4H112c-6,0-8.1-3.4-8.1-8.4
		L103.8,126.8L103.8,126.8z M118.5,127.9c0-1.2-0.4-1.7-1.3-1.7h-3c-1,0-1.4,0.5-1.4,1.7v13c0,1.3,0.5,1.7,1.4,1.7h3
		c1,0,1.4-0.5,1.4-1.7L118.5,127.9L118.5,127.9z"/>
	<path class="st1" d="M137.4,127.2c-3.8-3.1-4.6-5.4-4.6-9.4v-3.7c0-5,2.1-8.4,8.1-8.4h16.7v9.3c-0.8-0.5-2.1-0.7-3.1-0.7h-11.1
		c-0.8,0-1.3,0.5-1.3,1.7v2c0,0.7,0.2,1.3,0.7,1.7l10.9,8.9c3.8,3.1,4.6,5.5,4.6,9.5v3.8c0,5-2.1,8.4-8.1,8.4h-17.6V141
		c0.8,0.5,2.1,0.7,3.2,0.7h11.6c1,0,1.4-0.5,1.4-1.7v-2.1c0-0.7-0.2-1.3-0.7-1.7L137.4,127.2z"/>
	<path class="st1" d="M201.6,150.3h-8.8v-33.6L188,141h-9.8l-4.8-24.3v33.6h-9v-44.6h14.2l4.7,25.2l4.7-25.2h13.6L201.6,150.3
		L201.6,150.3z"/>
	<path class="st1" d="M212.2,127.2c-3.8-3.1-4.6-5.4-4.6-9.4v-3.7c0-5,2.1-8.4,8.1-8.4h16.7v9.3c-0.8-0.5-2.1-0.7-3.1-0.7h-11.1
		c-0.8,0-1.3,0.5-1.3,1.7v2c0,0.7,0.2,1.3,0.7,1.7l10.9,8.9c3.8,3.1,4.6,5.5,4.6,9.5v3.8c0,5-2.1,8.4-8.1,8.4h-17.6V141
		c0.8,0.5,2.1,0.7,3.2,0.7h11.6c1,0,1.4-0.5,1.4-1.7v-2.1c0-0.7-0.2-1.3-0.7-1.7L212.2,127.2z"/>
</g>
</svg>
