<svg id="Layer_1" data-name="Layer 1" xmlns="http://www.w3.org/2000/svg" viewBox="0 0 256 256"><rect width="256" height="256" style="fill:#0073e6"/><g id="layer1"><g id="g3390"><path id="path3392" d="M29.61,117.07l-1.48,7.6h6.08a7,7,0,0,0,3.79-.78,4,4,0,0,0,1.55-2.63,2.82,2.82,0,0,0,.09-.71V120a2.47,2.47,0,0,0-1-2.2,6,6,0,0,0-3.12-.72ZM27,130.8l-1.7,8.81h6.36a9.12,9.12,0,0,0,4.46-.84,4.15,4.15,0,0,0,1.76-3,9.86,9.86,0,0,0,.15-1.62,2.79,2.79,0,0,0-1.2-2.62,7.14,7.14,0,0,0-3.55-.71Zm-10.43,15,6.87-34.87H36.71a19.82,19.82,0,0,1,4.41.44,9.7,9.7,0,0,1,3.35,1.36,6.69,6.69,0,0,1,2.21,2.43,7.72,7.72,0,0,1,.78,3.6,8.14,8.14,0,0,1-.08,1.1,10.59,10.59,0,0,1-.16,1.26,8.61,8.61,0,0,1-1.86,4.08,9.22,9.22,0,0,1-3.39,2.5,5.63,5.63,0,0,1,2.89,2.57,8.53,8.53,0,0,1,.94,4.09,15.12,15.12,0,0,1-.16,2c-.48,3.39-1.91,5.81-4.28,7.24A17.78,17.78,0,0,1,32,145.8Z" style="fill:#fff"/></g><g id="g3394"><path id="path3396" d="M68,120.16h7.8l-3.1,15.92a18.27,18.27,0,0,1-1.54,4.9,9.34,9.34,0,0,1-2.6,3.31,9.59,9.59,0,0,1-3.84,1.78,22.42,22.42,0,0,1-5.29.54c-3.47,0-6.09-.67-7.9-2a7.22,7.22,0,0,1-2.68-6.18c0-.45,0-1,.06-1.49s.14-1,.22-1.5l3-15.28h7.79l-3,15.58c-.07.33-.11.65-.15,1s0,.47,0,.7a2.66,2.66,0,0,0,.83,2.21,4.07,4.07,0,0,0,2.45.62,10,10,0,0,0,2-.18,3.08,3.08,0,0,0,1.4-.72,3.93,3.93,0,0,0,.94-1.4,10.54,10.54,0,0,0,.6-2.2Z" style="fill:#fff"/></g><g id="g3398"><path id="path3400" d="M82.61,109.39H90.4l-7.11,36.39H75.51Z" style="fill:#fff"/></g><g id="g3402"><path id="path3404" d="M104.7,132.27l9,13.51h-8.92l-7.11-11.22-2.21,11.22H88l7.1-36.39h7.45l-3.87,20,9.7-9.26h9.21Z" style="fill:#fff"/></g><g id="g3406"><path id="path3408" d="M127.05,128.24a25.86,25.86,0,0,0-.6,5c0,2.14.57,3.66,1.68,4.56s3,1.32,5.5,1.32h3.29l1.23-6.32h-5.06l2.63-6.72h11.86l-2.8,14.5a6.73,6.73,0,0,1-1.64,3.68,5.66,5.66,0,0,1-3.31,1.32,30.71,30.71,0,0,1-3.84.27h-3.56a22,22,0,0,1-6.6-.86,11.14,11.14,0,0,1-4.41-2.44,9.16,9.16,0,0,1-2.43-3.78,15.36,15.36,0,0,1-.76-5,29.79,29.79,0,0,1,.69-6,30.85,30.85,0,0,1,2.69-8.38,15,15,0,0,1,4.22-5.18,14.82,14.82,0,0,1,5.82-2.61,35.3,35.3,0,0,1,7.6-.74H144c1.54,0,3.19.06,4.95.13l-2.6,6.76-2-.08h-6.24a18.21,18.21,0,0,0-4.41.46,7.11,7.11,0,0,0-3.1,1.67,9.14,9.14,0,0,0-2.21,3.3,26.6,26.6,0,0,0-1.44,5.26" style="fill:#fff"/></g><g id="g3410"><path id="path3412" d="M206,126.29l-1.82,9.41a7.1,7.1,0,0,0-.19,1.66,2.15,2.15,0,0,0,.66,1.76,3.56,3.56,0,0,0,2.33.59h5l-2.35,6.12H204.4c-2.93,0-5.05-.64-6.34-1.92a7.05,7.05,0,0,1-2-5.34,10.14,10.14,0,0,1,.1-1.46,8.8,8.8,0,0,1,.24-1.62L200.58,114l8-.92-1.36,7.06H215l-2.35,6.13Z" style="fill:#fff"/></g><g id="g3414"><path id="path3416" d="M229,124.91a5.21,5.21,0,0,0-3.76,1.25,9.42,9.42,0,0,0-2.06,4.4h4.26a17.24,17.24,0,0,0,2-.09,4.31,4.31,0,0,0,1.35-.37,2.31,2.31,0,0,0,.83-.69,3.73,3.73,0,0,0,.49-1,3.94,3.94,0,0,0,.2-1.28,2,2,0,0,0-.74-1.61,4.3,4.3,0,0,0-2.6-.59m-6.86,11v.8a3.31,3.31,0,0,0,1.1,2.64,6,6,0,0,0,3.59.83h4.72c1.34,0,2.74-.1,4.2-.2l-2.2,5.64c-1,.1-2.2.16-3.65.2s-2.93,0-4.53,0a16.17,16.17,0,0,1-5.07-.69,8.09,8.09,0,0,1-3.22-1.83,6.82,6.82,0,0,1-1.72-2.9,12.59,12.59,0,0,1-.51-3.66,26.61,26.61,0,0,1,2.59-10.87,12.71,12.71,0,0,1,3.3-4,10.5,10.5,0,0,1,4.19-2,20.64,20.64,0,0,1,4.7-.51c3.31,0,5.81.62,7.42,1.86a6.36,6.36,0,0,1,2.43,5.34c0,.43-.08.86-.12,1.3s-.13.89-.22,1.34a7.4,7.4,0,0,1-3.69,5.25,17.33,17.33,0,0,1-8.15,1.52Z" style="fill:#fff"/></g><g id="g3418"><path id="path3420" d="M171,119.18c7.44,5.09,12.63,11.62,14.77,26.62h8c-.78-15-9.75-27.85-22.74-35-13,7.11-21.9,20-22.74,35h8s14.12.52,23.46-14.18c0,0-9.38,5-14.9,2.92-5.22-2-2.69-6.49-2.41-7a31.22,31.22,0,0,1,8.6-8.39" style="fill:#fff"/></g></g></svg>